<mxfile host="drawio-plugin" modified="2021-09-24T19:29:00.613Z" agent="5.0 (X11; Linux x86_64) AppleWebKit/537.36 (KHTML, like Gecko) Chrome/89.0.4389.114 Safari/537.36" etag="3LQ3Xl0VeIbVe5GsxkP7" version="14.7.4" type="embed"><diagram id="23iRSUPoRavnBvh4doch" name="Page-1"><mxGraphModel dx="1176" dy="505" grid="1" gridSize="10" guides="1" tooltips="1" connect="1" arrows="1" fold="1" page="1" pageScale="1" pageWidth="827" pageHeight="1169" math="0" shadow="0"><root><mxCell id="0"/><mxCell id="1" parent="0"/><mxCell id="11" value="Menu" style="swimlane;fontStyle=1;align=center;verticalAlign=top;childLayout=stackLayout;horizontal=1;startSize=26;horizontalStack=0;resizeParent=1;resizeParentMax=0;resizeLast=0;collapsible=1;marginBottom=0;fillColor=#0050ef;strokeColor=#001DBC;fontColor=#ffffff;" vertex="1" parent="1"><mxGeometry x="80" y="460" width="160" height="98" as="geometry"/></mxCell><mxCell id="12" value="-name&#10;-group_name&#10;-sizes" style="text;strokeColor=none;fillColor=none;align=left;verticalAlign=top;spacingLeft=4;spacingRight=4;overflow=hidden;rotatable=0;points=[[0,0.5],[1,0.5]];portConstraint=eastwest;" vertex="1" parent="11"><mxGeometry y="26" width="160" height="64" as="geometry"/></mxCell><mxCell id="13" value="" style="line;strokeWidth=1;fillColor=none;align=left;verticalAlign=middle;spacingTop=-1;spacingLeft=3;spacingRight=3;rotatable=0;labelPosition=right;points=[];portConstraint=eastwest;" vertex="1" parent="11"><mxGeometry y="90" width="160" height="8" as="geometry"/></mxCell><mxCell id="24" value="Order" style="swimlane;fontStyle=1;align=center;verticalAlign=top;childLayout=stackLayout;horizontal=1;startSize=26;horizontalStack=0;resizeParent=1;resizeParentMax=0;resizeLast=0;collapsible=1;marginBottom=0;fillColor=#0050ef;strokeColor=#001DBC;fontColor=#ffffff;" vertex="1" parent="1"><mxGeometry x="550" y="440" width="160" height="190" as="geometry"/></mxCell><mxCell id="25" value="+total price&#10;+date&#10;+payment" style="text;strokeColor=none;fillColor=none;align=left;verticalAlign=top;spacingLeft=4;spacingRight=4;overflow=hidden;rotatable=0;points=[[0,0.5],[1,0.5]];portConstraint=eastwest;" vertex="1" parent="24"><mxGeometry y="26" width="160" height="94" as="geometry"/></mxCell><mxCell id="26" value="" style="line;strokeWidth=1;fillColor=none;align=left;verticalAlign=middle;spacingTop=-1;spacingLeft=3;spacingRight=3;rotatable=0;labelPosition=right;points=[];portConstraint=eastwest;" vertex="1" parent="24"><mxGeometry y="120" width="160" height="8" as="geometry"/></mxCell><mxCell id="27" value="+set_payment()&#10;- if payment: shut() " style="text;strokeColor=none;fillColor=none;align=left;verticalAlign=top;spacingLeft=4;spacingRight=4;overflow=hidden;rotatable=0;points=[[0,0.5],[1,0.5]];portConstraint=eastwest;" vertex="1" parent="24"><mxGeometry y="128" width="160" height="62" as="geometry"/></mxCell><mxCell id="32" value="OrderString" style="swimlane;fontStyle=1;align=center;verticalAlign=top;childLayout=stackLayout;horizontal=1;startSize=26;horizontalStack=0;resizeParent=1;resizeParentMax=0;resizeLast=0;collapsible=1;marginBottom=0;fillColor=#0050ef;strokeColor=#001DBC;fontColor=#ffffff;" vertex="1" parent="1"><mxGeometry x="310" y="460" width="160" height="170" as="geometry"/></mxCell><mxCell id="33" value="+id&#10;+name&#10;+size&#10;+price" style="text;strokeColor=none;fillColor=none;align=left;verticalAlign=top;spacingLeft=4;spacingRight=4;overflow=hidden;rotatable=0;points=[[0,0.5],[1,0.5]];portConstraint=eastwest;" vertex="1" parent="32"><mxGeometry y="26" width="160" height="74" as="geometry"/></mxCell><mxCell id="34" value="" style="line;strokeWidth=1;fillColor=none;align=left;verticalAlign=middle;spacingTop=-1;spacingLeft=3;spacingRight=3;rotatable=0;labelPosition=right;points=[];portConstraint=eastwest;" vertex="1" parent="32"><mxGeometry y="100" width="160" height="8" as="geometry"/></mxCell><mxCell id="35" value="+add_order(name, size)&#10;+cancel(id)&#10;+remove(id)" style="text;strokeColor=none;fillColor=none;align=left;verticalAlign=top;spacingLeft=4;spacingRight=4;overflow=hidden;rotatable=0;points=[[0,0.5],[1,0.5]];portConstraint=eastwest;" vertex="1" parent="32"><mxGeometry y="108" width="160" height="62" as="geometry"/></mxCell><mxCell id="38" value="Waiter" style="swimlane;fontStyle=1;align=center;verticalAlign=top;childLayout=stackLayout;horizontal=1;startSize=26;horizontalStack=0;resizeParent=1;resizeParentMax=0;resizeLast=0;collapsible=1;marginBottom=0;fillColor=#1ba1e2;strokeColor=#006EAF;fontColor=#ffffff;" vertex="1" parent="1"><mxGeometry x="80" y="570" width="160" height="68" as="geometry"/></mxCell><mxCell id="39" value="+name" style="text;strokeColor=none;fillColor=none;align=left;verticalAlign=top;spacingLeft=4;spacingRight=4;overflow=hidden;rotatable=0;points=[[0,0.5],[1,0.5]];portConstraint=eastwest;" vertex="1" parent="38"><mxGeometry y="26" width="160" height="34" as="geometry"/></mxCell><mxCell id="40" value="" style="line;strokeWidth=1;fillColor=none;align=left;verticalAlign=middle;spacingTop=-1;spacingLeft=3;spacingRight=3;rotatable=0;labelPosition=right;points=[];portConstraint=eastwest;" vertex="1" parent="38"><mxGeometry y="60" width="160" height="8" as="geometry"/></mxCell><mxCell id="44" value="" style="endArrow=open;endFill=1;endSize=12;html=1;exitX=0;exitY=0.5;exitDx=0;exitDy=0;entryX=1.006;entryY=0.037;entryDx=0;entryDy=0;entryPerimeter=0;" edge="1" parent="1" source="35" target="39"><mxGeometry width="160" relative="1" as="geometry"><mxPoint x="340" y="420" as="sourcePoint"/><mxPoint x="310" y="429" as="targetPoint"/></mxGeometry></mxCell><mxCell id="53" value="Client" style="swimlane;fontStyle=1;align=center;verticalAlign=top;childLayout=stackLayout;horizontal=1;startSize=26;horizontalStack=0;resizeParent=1;resizeParentMax=0;resizeLast=0;collapsible=1;marginBottom=0;fillColor=#008a00;strokeColor=#005700;fontColor=#ffffff;" vertex="1" parent="1"><mxGeometry x="414" y="240" width="160" height="108" as="geometry"/></mxCell><mxCell id="54" value="+ Cl_name&#10;+ Phone&#10;+ Favorite_dish" style="text;strokeColor=none;fillColor=none;align=left;verticalAlign=top;spacingLeft=4;spacingRight=4;overflow=hidden;rotatable=0;points=[[0,0.5],[1,0.5]];portConstraint=eastwest;" vertex="1" parent="53"><mxGeometry y="26" width="160" height="74" as="geometry"/></mxCell><mxCell id="55" value="" style="line;strokeWidth=1;fillColor=none;align=left;verticalAlign=middle;spacingTop=-1;spacingLeft=3;spacingRight=3;rotatable=0;labelPosition=right;points=[];portConstraint=eastwest;" vertex="1" parent="53"><mxGeometry y="100" width="160" height="8" as="geometry"/></mxCell><mxCell id="57" value="Tables" style="swimlane;fontStyle=1;align=center;verticalAlign=top;childLayout=stackLayout;horizontal=1;startSize=26;horizontalStack=0;resizeParent=1;resizeParentMax=0;resizeLast=0;collapsible=1;marginBottom=0;fillColor=#0050ef;strokeColor=#001DBC;fontColor=#ffffff;" vertex="1" parent="1"><mxGeometry x="640" y="360" width="100" height="60" as="geometry"/></mxCell><mxCell id="58" value="+Table_number" style="text;strokeColor=none;fillColor=none;align=left;verticalAlign=top;spacingLeft=4;spacingRight=4;overflow=hidden;rotatable=0;points=[[0,0.5],[1,0.5]];portConstraint=eastwest;" vertex="1" parent="57"><mxGeometry y="26" width="100" height="26" as="geometry"/></mxCell><mxCell id="59" value="" style="line;strokeWidth=1;fillColor=none;align=left;verticalAlign=middle;spacingTop=-1;spacingLeft=3;spacingRight=3;rotatable=0;labelPosition=right;points=[];portConstraint=eastwest;" vertex="1" parent="57"><mxGeometry y="52" width="100" height="8" as="geometry"/></mxCell><mxCell id="70" value="Reserve" style="swimlane;fontStyle=1;align=center;verticalAlign=top;childLayout=stackLayout;horizontal=1;startSize=26;horizontalStack=0;resizeParent=1;resizeParentMax=0;resizeLast=0;collapsible=1;marginBottom=0;fillColor=#1ba1e2;strokeColor=#006EAF;fontColor=#ffffff;" vertex="1" parent="1"><mxGeometry x="610" y="240" width="160" height="100" as="geometry"/></mxCell><mxCell id="71" value="+ Time" style="text;strokeColor=none;fillColor=none;align=left;verticalAlign=top;spacingLeft=4;spacingRight=4;overflow=hidden;rotatable=0;points=[[0,0.5],[1,0.5]];portConstraint=eastwest;" vertex="1" parent="70"><mxGeometry y="26" width="160" height="26" as="geometry"/></mxCell><mxCell id="72" value="" style="line;strokeWidth=1;fillColor=none;align=left;verticalAlign=middle;spacingTop=-1;spacingLeft=3;spacingRight=3;rotatable=0;labelPosition=right;points=[];portConstraint=eastwest;" vertex="1" parent="70"><mxGeometry y="52" width="160" height="8" as="geometry"/></mxCell><mxCell id="73" value="+  add_reserve(time)&#10;+ cancel()" style="text;strokeColor=none;fillColor=none;align=left;verticalAlign=top;spacingLeft=4;spacingRight=4;overflow=hidden;rotatable=0;points=[[0,0.5],[1,0.5]];portConstraint=eastwest;" vertex="1" parent="70"><mxGeometry y="60" width="160" height="40" as="geometry"/></mxCell><mxCell id="37" value="" style="endArrow=diamondThin;endFill=0;endSize=24;html=1;entryX=-0.012;entryY=0.713;entryDx=0;entryDy=0;entryPerimeter=0;exitX=0.994;exitY=0.635;exitDx=0;exitDy=0;exitPerimeter=0;" edge="1" parent="1" source="33" target="25"><mxGeometry width="160" relative="1" as="geometry"><mxPoint x="580" y="410" as="sourcePoint"/><mxPoint x="570" y="516.5" as="targetPoint"/></mxGeometry></mxCell><mxCell id="74" value="" style="endArrow=open;endFill=1;endSize=12;html=1;entryX=0.5;entryY=0;entryDx=0;entryDy=0;exitX=0.5;exitY=1;exitDx=0;exitDy=0;exitPerimeter=0;" edge="1" parent="1" source="73" target="57"><mxGeometry width="160" relative="1" as="geometry"><mxPoint x="690" y="250" as="sourcePoint"/><mxPoint x="850" y="250" as="targetPoint"/></mxGeometry></mxCell><mxCell id="75" value="" style="endArrow=open;endFill=1;endSize=12;html=1;entryX=0.425;entryY=1.115;entryDx=0;entryDy=0;entryPerimeter=0;exitX=0.825;exitY=0.011;exitDx=0;exitDy=0;exitPerimeter=0;" edge="1" parent="1" source="24" target="58"><mxGeometry width="160" relative="1" as="geometry"><mxPoint x="674" y="440" as="sourcePoint"/><mxPoint x="500" y="320" as="targetPoint"/></mxGeometry></mxCell><mxCell id="76" value="" style="endArrow=diamondThin;endFill=1;endSize=24;html=1;exitX=0.05;exitY=0.005;exitDx=0;exitDy=0;exitPerimeter=0;entryX=0.9;entryY=0.5;entryDx=0;entryDy=0;entryPerimeter=0;" edge="1" parent="1" source="24" target="55"><mxGeometry width="160" relative="1" as="geometry"><mxPoint x="340" y="320" as="sourcePoint"/><mxPoint x="500" y="320" as="targetPoint"/></mxGeometry></mxCell><mxCell id="77" value="Cook" style="swimlane;fontStyle=1;align=center;verticalAlign=top;childLayout=stackLayout;horizontal=1;startSize=26;horizontalStack=0;resizeParent=1;resizeParentMax=0;resizeLast=0;collapsible=1;marginBottom=0;fillColor=#1ba1e2;strokeColor=#006EAF;fontColor=#ffffff;" vertex="1" parent="1"><mxGeometry x="210" y="700" width="160" height="78" as="geometry"/></mxCell><mxCell id="78" value="+name" style="text;strokeColor=none;fillColor=none;align=left;verticalAlign=top;spacingLeft=4;spacingRight=4;overflow=hidden;rotatable=0;points=[[0,0.5],[1,0.5]];portConstraint=eastwest;" vertex="1" parent="77"><mxGeometry y="26" width="160" height="44" as="geometry"/></mxCell><mxCell id="79" value="" style="line;strokeWidth=1;fillColor=none;align=left;verticalAlign=middle;spacingTop=-1;spacingLeft=3;spacingRight=3;rotatable=0;labelPosition=right;points=[];portConstraint=eastwest;" vertex="1" parent="77"><mxGeometry y="70" width="160" height="8" as="geometry"/></mxCell><mxCell id="81" value="Barman" style="swimlane;fontStyle=1;align=center;verticalAlign=top;childLayout=stackLayout;horizontal=1;startSize=26;horizontalStack=0;resizeParent=1;resizeParentMax=0;resizeLast=0;collapsible=1;marginBottom=0;fillColor=#1ba1e2;strokeColor=#006EAF;fontColor=#ffffff;" vertex="1" parent="1"><mxGeometry x="400" y="700" width="160" height="88" as="geometry"/></mxCell><mxCell id="82" value="+name" style="text;strokeColor=none;fillColor=none;align=left;verticalAlign=top;spacingLeft=4;spacingRight=4;overflow=hidden;rotatable=0;points=[[0,0.5],[1,0.5]];portConstraint=eastwest;" vertex="1" parent="81"><mxGeometry y="26" width="160" height="54" as="geometry"/></mxCell><mxCell id="83" value="" style="line;strokeWidth=1;fillColor=none;align=left;verticalAlign=middle;spacingTop=-1;spacingLeft=3;spacingRight=3;rotatable=0;labelPosition=right;points=[];portConstraint=eastwest;" vertex="1" parent="81"><mxGeometry y="80" width="160" height="8" as="geometry"/></mxCell><mxCell id="86" value="" style="text;strokeColor=none;fillColor=none;align=left;verticalAlign=middle;spacingTop=-1;spacingLeft=4;spacingRight=4;rotatable=0;labelPosition=right;points=[];portConstraint=eastwest;" vertex="1" parent="1"><mxGeometry x="410" y="520" width="20" height="14" as="geometry"/></mxCell><mxCell id="89" value="" style="endArrow=block;dashed=1;endFill=0;endSize=12;html=1;exitX=0.519;exitY=0.984;exitDx=0;exitDy=0;exitPerimeter=0;entryX=0.5;entryY=0;entryDx=0;entryDy=0;" edge="1" parent="1" source="35" target="77"><mxGeometry width="160" relative="1" as="geometry"><mxPoint x="340" y="580" as="sourcePoint"/><mxPoint x="400" y="670" as="targetPoint"/><Array as="points"><mxPoint x="393" y="670"/><mxPoint x="290" y="670"/></Array></mxGeometry></mxCell><mxCell id="90" value="" style="endArrow=block;dashed=1;endFill=0;endSize=12;html=1;entryX=0.5;entryY=0;entryDx=0;entryDy=0;" edge="1" parent="1" target="81"><mxGeometry width="160" relative="1" as="geometry"><mxPoint x="390" y="670" as="sourcePoint"/><mxPoint x="500" y="580" as="targetPoint"/><Array as="points"><mxPoint x="480" y="670"/></Array></mxGeometry></mxCell><mxCell id="96" style="edgeStyle=orthogonalEdgeStyle;rounded=0;orthogonalLoop=1;jettySize=auto;html=1;exitX=0;exitY=0.5;exitDx=0;exitDy=0;entryX=1.013;entryY=0.176;entryDx=0;entryDy=0;entryPerimeter=0;" edge="1" parent="1" source="71" target="54"><mxGeometry relative="1" as="geometry"/></mxCell><mxCell id="97" value="Products" style="swimlane;fontStyle=1;align=center;verticalAlign=top;childLayout=stackLayout;horizontal=1;startSize=26;horizontalStack=0;resizeParent=1;resizeParentMax=0;resizeLast=0;collapsible=1;marginBottom=0;fillColor=#1ba1e2;strokeColor=#006EAF;fontColor=#ffffff;" vertex="1" parent="1"><mxGeometry x="10" y="670" width="160" height="98" as="geometry"/></mxCell><mxCell id="98" value="+ prod_name&#10;+ amount_of&#10;+ used" style="text;strokeColor=none;fillColor=none;align=left;verticalAlign=top;spacingLeft=4;spacingRight=4;overflow=hidden;rotatable=0;points=[[0,0.5],[1,0.5]];portConstraint=eastwest;" vertex="1" parent="97"><mxGeometry y="26" width="160" height="64" as="geometry"/></mxCell><mxCell id="99" value="" style="line;strokeWidth=1;fillColor=none;align=left;verticalAlign=middle;spacingTop=-1;spacingLeft=3;spacingRight=3;rotatable=0;labelPosition=right;points=[];portConstraint=eastwest;" vertex="1" parent="97"><mxGeometry y="90" width="160" height="8" as="geometry"/></mxCell><mxCell id="101" value="Bar" style="swimlane;fontStyle=1;align=center;verticalAlign=top;childLayout=stackLayout;horizontal=1;startSize=26;horizontalStack=0;resizeParent=1;resizeParentMax=0;resizeLast=0;collapsible=1;marginBottom=0;fillColor=#1ba1e2;strokeColor=#006EAF;fontColor=#ffffff;" vertex="1" parent="1"><mxGeometry x="600" y="670" width="160" height="98" as="geometry"/></mxCell><mxCell id="102" value="+ drink_name&#10;+ amount_of&#10;+ sold&#10;" style="text;strokeColor=none;fillColor=none;align=left;verticalAlign=top;spacingLeft=4;spacingRight=4;overflow=hidden;rotatable=0;points=[[0,0.5],[1,0.5]];portConstraint=eastwest;" vertex="1" parent="101"><mxGeometry y="26" width="160" height="64" as="geometry"/></mxCell><mxCell id="103" value="" style="line;strokeWidth=1;fillColor=none;align=left;verticalAlign=middle;spacingTop=-1;spacingLeft=3;spacingRight=3;rotatable=0;labelPosition=right;points=[];portConstraint=eastwest;" vertex="1" parent="101"><mxGeometry y="90" width="160" height="8" as="geometry"/></mxCell><mxCell id="105" value="" style="endArrow=block;dashed=1;endFill=0;endSize=12;html=1;exitX=0;exitY=0.5;exitDx=0;exitDy=0;entryX=1.013;entryY=0.828;entryDx=0;entryDy=0;entryPerimeter=0;" edge="1" parent="1" source="78" target="98"><mxGeometry width="160" relative="1" as="geometry"><mxPoint x="230" y="800" as="sourcePoint"/><mxPoint x="390" y="800" as="targetPoint"/></mxGeometry></mxCell><mxCell id="106" value="" style="endArrow=block;dashed=1;endFill=0;endSize=12;html=1;exitX=1.019;exitY=0.278;exitDx=0;exitDy=0;entryX=-0.025;entryY=0.688;entryDx=0;entryDy=0;entryPerimeter=0;exitPerimeter=0;" edge="1" parent="1" source="82" target="102"><mxGeometry width="160" relative="1" as="geometry"><mxPoint x="440" y="800" as="sourcePoint"/><mxPoint x="600" y="800" as="targetPoint"/></mxGeometry></mxCell><mxCell id="52" value="" style="endArrow=open;endFill=1;endSize=12;html=1;entryX=1.006;entryY=0.429;entryDx=0;entryDy=0;entryPerimeter=0;exitX=-0.025;exitY=0.365;exitDx=0;exitDy=0;exitPerimeter=0;" edge="1" parent="1" source="33" target="12"><mxGeometry width="160" relative="1" as="geometry"><mxPoint x="310" y="530" as="sourcePoint"/><mxPoint x="470" y="530" as="targetPoint"/></mxGeometry></mxCell></root></mxGraphModel></diagram></mxfile>